<?xml version="1.0" encoding="UTF-8"?>
<svg id="Layer_1" xmlns="http://www.w3.org/2000/svg" version="1.1" viewBox="0 0 817 68.1">
  <!-- Generator: Adobe Illustrator 30.2.1, SVG Export Plug-In . SVG Version: 2.1.1 Build 1)  -->
  <defs>
    <style>
      .st0 {
        fill: #93a490;
      }

      .st1 {
        isolation: isolate;
      }
    </style>
  </defs>
  <g class="st1">
    <g class="st1">
      <path class="st0" d="M30,52.2c-2.6,0-5.1-.5-7.4-1.3-2.3-.9-4.2-2.2-5.9-3.8-1.7-1.6-3-3.5-3.9-5.8-.9-2.2-1.4-4.7-1.4-7.3s.5-5.1,1.4-7.3c.9-2.2,2.2-4.1,3.8-5.8,1.6-1.6,3.5-2.9,5.8-3.8,2.2-.9,4.6-1.3,7.1-1.3s3.6.3,5.3.8c1.8.5,3.4,1.2,4.8,2.1,1.5.9,2.6,1.9,3.5,3.1l-1.7,1.8c-.9-1-2-1.9-3.3-2.7-1.3-.8-2.7-1.4-4.2-1.9-1.5-.5-2.9-.7-4.3-.7-2.2,0-4.2.4-6.1,1.2-1.9.8-3.5,1.9-4.9,3.3-1.4,1.4-2.5,3-3.3,5-.8,1.9-1.2,4-1.2,6.3s.4,4.4,1.2,6.3c.8,1.9,1.9,3.6,3.4,5,1.5,1.4,3.2,2.5,5.1,3.3,1.9.8,4,1.1,6.3,1.1s3.6-.3,5.2-.8c1.6-.6,3-1.3,4.1-2.4,1.2-1,2.1-2.2,2.7-3.6.6-1.4,1-2.8,1-4.4v-2.4l.9,1.3h-14v-2.5h15.5c0,.2,0,.4,0,.8,0,.4,0,.7,0,1.1,0,.4,0,.8,0,1.1,0,2.1-.4,4-1.2,5.8-.8,1.8-1.9,3.3-3.4,4.6-1.4,1.3-3.1,2.3-5,3-1.9.7-4,1.1-6.2,1.1Z"/>
      <path class="st0" d="M67.6,52.2c-2.5,0-4.9-.5-7-1.3-2.1-.9-4-2.2-5.5-3.8-1.6-1.6-2.8-3.5-3.6-5.8-.8-2.2-1.3-4.7-1.3-7.3s.4-5.1,1.3-7.3c.8-2.2,2.1-4.1,3.6-5.8,1.6-1.6,3.4-2.9,5.5-3.8,2.1-.9,4.5-1.3,7-1.3s4.9.5,7,1.3c2.1.9,4,2.2,5.5,3.8,1.6,1.6,2.8,3.6,3.6,5.8.9,2.2,1.3,4.7,1.3,7.3s-.4,5.1-1.3,7.3c-.9,2.2-2.1,4.1-3.6,5.8-1.6,1.6-3.4,2.9-5.5,3.8s-4.5,1.3-7,1.3ZM67.6,49.7c2.1,0,4.1-.4,5.9-1.1,1.8-.8,3.4-1.8,4.7-3.3,1.3-1.4,2.3-3.1,3.1-5,.7-1.9,1.1-4,1.1-6.3s-.4-4.4-1.1-6.3c-.7-1.9-1.8-3.6-3.1-5-1.3-1.4-2.9-2.5-4.7-3.3-1.8-.8-3.8-1.2-5.9-1.2s-4.1.4-5.9,1.2c-1.8.8-3.4,1.9-4.7,3.3-1.3,1.4-2.3,3-3.1,5-.7,1.9-1.1,4-1.1,6.3s.4,4.4,1.1,6.3c.7,1.9,1.7,3.6,3.1,5,1.3,1.4,2.9,2.5,4.7,3.3,1.8.8,3.8,1.1,5.9,1.1Z"/>
      <path class="st0" d="M93.2,51.7V16.1h2.5v33.1h17.5v2.5h-20Z"/>
      <path class="st0" d="M120.5,51.7V16.1h13c2.3,0,4.5.4,6.5,1.3,2,.9,3.8,2.1,5.3,3.7,1.5,1.6,2.7,3.5,3.6,5.6.9,2.2,1.3,4.6,1.3,7.2s-.4,5-1.3,7.2c-.9,2.2-2.1,4.1-3.6,5.6-1.5,1.6-3.3,2.8-5.3,3.7-2,.9-4.2,1.3-6.5,1.3h-13ZM123,50.1l-.7-.9h10.9c1.9,0,3.8-.4,5.5-1.1,1.7-.7,3.2-1.8,4.5-3.2,1.3-1.4,2.3-3,3.1-4.8.7-1.8,1.1-3.9,1.1-6.1s-.4-4.3-1.1-6.1c-.7-1.8-1.8-3.5-3.1-4.8-1.3-1.4-2.8-2.4-4.5-3.2-1.7-.7-3.5-1.1-5.5-1.1h-11l.9-.8v32.2Z"/>
      <path class="st0" d="M158.1,51.7V16.1h2.5v35.6h-2.5ZM159.6,18.7v-2.5h20.2v2.5h-20.2ZM159.7,35.1v-2.5h17.7v2.5h-17.7Z"/>
      <path class="st0" d="M185.8,51.7v-2.5h5.8v-30.5h-5.8v-2.5h14v2.5h-5.8v30.5h5.8v2.5h-14Z"/>
      <path class="st0" d="M208.8,51.7V16.1h2.3l24.7,32.4-.6,1.3c0-.3,0-1,0-2.1,0-1.2,0-2.5,0-4.1,0-1.6,0-3.3,0-5,0-1.7,0-3.3,0-4.7,0-1.5,0-2.6,0-3.4v-14.4h2.5v35.6h-2.4l-24.9-32.6.7-1.4c0,.7,0,1.6.1,2.8,0,1.2,0,2.6.1,4,0,1.4,0,2.9.1,4.2,0,1.4,0,2.6,0,3.6,0,1,0,1.6,0,1.9v17.5h-2.5Z"/>
      <path class="st0" d="M263.6,52.2c-2.6,0-5-.5-7.2-1.3-2.2-.9-4.1-2.2-5.7-3.8-1.6-1.6-2.9-3.6-3.7-5.8s-1.3-4.7-1.3-7.3.4-5.1,1.3-7.3c.8-2.2,2.1-4.1,3.6-5.7,1.6-1.6,3.4-2.9,5.5-3.8,2.1-.9,4.5-1.3,7-1.3s3.2.3,4.8.8c1.6.5,3.1,1.2,4.5,2.2,1.4.9,2.5,2,3.5,3.2l-1.9,2c-.7-1.1-1.7-2-2.9-2.9-1.2-.8-2.5-1.5-3.9-2-1.4-.5-2.8-.7-4.2-.7-2.1,0-4.1.4-5.9,1.1-1.8.8-3.4,1.8-4.7,3.2-1.3,1.4-2.3,3-3.1,4.9-.7,1.9-1.1,4-1.1,6.2s.4,4.4,1.1,6.3c.7,1.9,1.8,3.6,3.2,5,1.4,1.4,3,2.5,4.8,3.3,1.8.8,3.9,1.2,6.1,1.2s2.7-.2,4-.6c1.3-.4,2.6-.9,3.6-1.6,1.1-.7,2-1.5,2.6-2.4l1.4,2.2c-.8,1-1.9,1.8-3.1,2.5s-2.6,1.3-4.1,1.7-2.9.6-4.4.6Z"/>
      <path class="st0" d="M282.9,51.7V16.1h2.5v35.6h-2.5ZM284.4,35.2v-2.5h23.8v2.5h-23.8ZM307.2,51.7V16.1h2.5v35.6h-2.5Z"/>
      <path class="st0" d="M335,51.7V16.1h2.4l14.3,23.3h-1.1l14.5-23.3h2.2v35.6h-2.5v-17.9c0-3.1,0-5.8,0-8.2,0-2.4.2-4.9.4-7.3l.8,1-13.9,22h-2.1l-13.4-21.7.5-1.3c.2,2.3.3,4.6.4,7s0,5.2,0,8.5v17.9h-2.5Z"/>
      <path class="st0" d="M378.4,51.7V16.1h20.7v2.5h-18.2v30.5h18v2.5h-20.5ZM379.6,34.6v-2.5h16.6v2.5h-16.6Z"/>
      <path class="st0" d="M403.9,51.7l13.5-35.6h3.5l13.4,35.6h-2.9l-9.2-24.6c-.4-1.1-.8-2-1-2.8-.3-.8-.6-1.6-.8-2.3-.3-.7-.5-1.5-.8-2.4-.3-.8-.6-1.8-.9-2.8h.9c-.3,1.1-.7,2.1-.9,3-.3.8-.6,1.7-.9,2.4-.3.8-.6,1.6-.9,2.4-.3.8-.7,1.8-1.1,2.9l-9.2,24.3h-2.6ZM409.5,41l1-2.5h17.5l1,2.5h-19.4Z"/>
      <path class="st0" d="M441.1,51.7V16.1h13c2.3,0,4.5.4,6.5,1.3,2,.9,3.8,2.1,5.3,3.7s2.7,3.5,3.6,5.6c.9,2.2,1.3,4.6,1.3,7.2s-.4,5-1.3,7.2c-.9,2.2-2.1,4.1-3.6,5.6s-3.3,2.8-5.3,3.7c-2,.9-4.2,1.3-6.5,1.3h-13ZM443.6,50.1l-.7-.9h10.9c1.9,0,3.8-.4,5.5-1.1,1.7-.7,3.2-1.8,4.5-3.2,1.3-1.4,2.3-3,3.1-4.8.7-1.8,1.1-3.9,1.1-6.1s-.4-4.3-1.1-6.1c-.7-1.8-1.8-3.5-3.1-4.8-1.3-1.4-2.8-2.4-4.5-3.2-1.7-.7-3.5-1.1-5.5-1.1h-11l.9-.8v32.2Z"/>
      <path class="st0" d="M493.2,52.2c-2.5,0-4.9-.5-7-1.3-2.1-.9-4-2.2-5.5-3.8-1.6-1.6-2.8-3.5-3.6-5.8-.8-2.2-1.3-4.7-1.3-7.3s.4-5.1,1.3-7.3c.8-2.2,2.1-4.1,3.6-5.8,1.6-1.6,3.4-2.9,5.5-3.8,2.1-.9,4.5-1.3,7-1.3s4.9.5,7,1.3c2.1.9,4,2.2,5.5,3.8,1.6,1.6,2.8,3.6,3.6,5.8.9,2.2,1.3,4.7,1.3,7.3s-.4,5.1-1.3,7.3c-.9,2.2-2.1,4.1-3.6,5.8-1.6,1.6-3.4,2.9-5.5,3.8-2.1.9-4.5,1.3-7,1.3ZM493.2,49.7c2.1,0,4.1-.4,5.9-1.1,1.8-.8,3.4-1.8,4.7-3.3s2.3-3.1,3.1-5c.7-1.9,1.1-4,1.1-6.3s-.4-4.4-1.1-6.3c-.7-1.9-1.8-3.6-3.1-5-1.3-1.4-2.9-2.5-4.7-3.3-1.8-.8-3.8-1.2-5.9-1.2s-4.1.4-5.9,1.2c-1.8.8-3.4,1.9-4.7,3.3-1.3,1.4-2.3,3-3.1,5s-1.1,4-1.1,6.3.4,4.4,1.1,6.3,1.7,3.6,3.1,5,2.9,2.5,4.7,3.3c1.8.8,3.8,1.1,5.9,1.1Z"/>
      <path class="st0" d="M524.5,51.7l-10.2-35.6h2.9l6.9,24.6c.3,1.1.6,1.9.8,2.7.2.7.4,1.4.5,2,.2.6.3,1.2.4,1.9.1.7.3,1.5.5,2.5h-.3c.4-1.3.7-2.4,1-3.3.3-.9.6-1.7,1-2.6.4-.9.8-2,1.3-3.4l5.6-14.3h2.6l6,14.6c.4,1.1.8,2,1.2,2.9.4.9.7,1.8,1.1,2.8.4,1,.7,2.1,1,3.4h-.3c.2-.8.3-1.5.4-2,.1-.6.2-1.1.3-1.6.1-.5.2-1,.4-1.5.1-.5.3-1.1.5-1.8.2-.7.4-1.5.7-2.4l7-24.3h2.7l-10.3,35.6h-2.8l-9.8-23.5h1.3c0,0-9.5,23.5-9.5,23.5h-2.8Z"/>
      <path class="st0" d="M579.4,51.7V16.1h2.5v35.6h-2.5ZM580.9,18.7v-2.5h20.2v2.5h-20.2ZM581,35.1v-2.5h17.7v2.5h-17.7Z"/>
      <path class="st0" d="M609.2,51.7V16.1h2.5v33.1h17.5v2.5h-20Z"/>
      <path class="st0" d="M650,52.2c-2.5,0-4.9-.5-7-1.3-2.1-.9-4-2.2-5.5-3.8-1.6-1.6-2.8-3.5-3.6-5.8-.8-2.2-1.3-4.7-1.3-7.3s.4-5.1,1.3-7.3c.8-2.2,2.1-4.1,3.6-5.8,1.6-1.6,3.4-2.9,5.5-3.8,2.1-.9,4.5-1.3,7-1.3s4.9.5,7,1.3c2.1.9,4,2.2,5.5,3.8,1.6,1.6,2.8,3.6,3.6,5.8.9,2.2,1.3,4.7,1.3,7.3s-.4,5.1-1.3,7.3c-.9,2.2-2.1,4.1-3.6,5.8-1.6,1.6-3.4,2.9-5.5,3.8-2.1.9-4.5,1.3-7,1.3ZM650,49.7c2.1,0,4.1-.4,5.9-1.1,1.8-.8,3.4-1.8,4.7-3.3s2.3-3.1,3.1-5c.7-1.9,1.1-4,1.1-6.3s-.4-4.4-1.1-6.3c-.7-1.9-1.8-3.6-3.1-5-1.3-1.4-2.9-2.5-4.7-3.3-1.8-.8-3.8-1.2-5.9-1.2s-4.1.4-5.9,1.2c-1.8.8-3.4,1.9-4.7,3.3-1.3,1.4-2.3,3-3.1,5s-1.1,4-1.1,6.3.4,4.4,1.1,6.3,1.7,3.6,3.1,5,2.9,2.5,4.7,3.3c1.8.8,3.8,1.1,5.9,1.1Z"/>
      <path class="st0" d="M681.3,51.7l-10.2-35.6h2.9l6.9,24.6c.3,1.1.6,1.9.8,2.7.2.7.4,1.4.5,2,.2.6.3,1.2.4,1.9.1.7.3,1.5.5,2.5h-.3c.4-1.3.7-2.4,1-3.3.3-.9.6-1.7,1-2.6.4-.9.8-2,1.3-3.4l5.6-14.3h2.6l6,14.6c.4,1.1.8,2,1.2,2.9.4.9.7,1.8,1.1,2.8.4,1,.7,2.1,1,3.4h-.3c.2-.8.3-1.5.4-2,.1-.6.2-1.1.3-1.6.1-.5.2-1,.4-1.5.1-.5.3-1.1.5-1.8.2-.7.4-1.5.7-2.4l7-24.3h2.7l-10.3,35.6h-2.8l-9.8-23.5h1.3c0,0-9.5,23.5-9.5,23.5h-2.8Z"/>
      <path class="st0" d="M721.9,51.7V16.1h20.7v2.5h-18.2v30.5h18v2.5h-20.5ZM723.2,34.6v-2.5h16.6v2.5h-16.6Z"/>
      <path class="st0" d="M751.7,51.7V16.1h12.8c2.1,0,4,.5,5.6,1.4,1.6,1,2.9,2.2,3.9,3.8.9,1.6,1.4,3.4,1.4,5.5s-.5,3.8-1.3,5.3c-.9,1.5-2.1,2.7-3.7,3.6s-3.4,1.3-5.4,1.3h-10.8v14.7h-2.5ZM754.3,34.5h11.1c1.5,0,2.7-.3,3.9-1,1.1-.6,2-1.5,2.6-2.7.6-1.2.9-2.5.9-3.9s-.4-3-1.1-4.3-1.7-2.2-3-3c-1.3-.7-2.7-1.1-4.4-1.1h-10.1v15.9ZM773.9,51.7l-8.9-15.3,2.1-1.3,9.7,16.6h-3Z"/>
      <path class="st0" d="M793.5,52.2c-1.7,0-3.3-.3-4.9-.8-1.5-.5-3-1.3-4.3-2.3-1.3-1-2.5-2.2-3.4-3.7l1.8-1.9c1.5,2.2,3.2,3.7,5,4.7,1.8.9,3.8,1.4,5.9,1.4s3.4-.3,4.8-.9c1.4-.6,2.6-1.5,3.4-2.6.8-1.1,1.2-2.3,1.2-3.7s-.2-1.8-.5-2.4-.8-1.3-1.4-1.8c-.6-.5-1.3-1-2.1-1.3-.8-.4-1.8-.7-2.8-1.1-1-.3-2.1-.7-3.3-1-1.6-.5-3.1-1-4.4-1.5-1.3-.5-2.4-1.1-3.3-1.8-.9-.7-1.6-1.6-2-2.5s-.7-2.2-.7-3.6.3-2.7.8-3.8c.6-1.2,1.3-2.2,2.4-3,1-.8,2.2-1.5,3.5-2,1.3-.5,2.8-.7,4.4-.7s3.4.3,4.8.8c1.4.5,2.6,1.3,3.6,2.2,1.1,1,2,2.1,2.9,3.4l-1.9,1.8c-.7-1.2-1.6-2.2-2.5-3-.9-.8-1.9-1.5-3.1-2s-2.4-.7-3.8-.7-3.1.3-4.4.9c-1.3.6-2.3,1.4-3,2.5-.7,1.1-1.1,2.3-1.1,3.6s.2,1.8.5,2.5.9,1.3,1.7,1.9c.8.5,1.7,1,2.9,1.4,1.2.4,2.6.8,4.2,1.2,1.7.4,3.2.9,4.5,1.4,1.4.5,2.5,1.2,3.5,1.9,1,.7,1.8,1.6,2.3,2.7.5,1.1.8,2.3.8,3.8s-.5,3.6-1.6,5.1c-1.1,1.5-2.5,2.7-4.3,3.6-1.8.9-3.9,1.3-6.3,1.3Z"/>
    </g>
  </g>
</svg>